<mxfile host="app.diagrams.net" modified="2021-02-15T11:02:11.372Z" agent="5.0 (Windows NT 10.0; Win64; x64) AppleWebKit/537.36 (KHTML, like Gecko) Chrome/88.0.4324.150 Safari/537.36" etag="VqmKmUOeLCXSnv06ADSx" version="14.3.1" type="github">
  <diagram id="h6qlHB6eGpHt7OrfhJ80" name="Page-1">
    <mxGraphModel dx="1695" dy="482" grid="1" gridSize="10" guides="1" tooltips="1" connect="1" arrows="1" fold="1" page="1" pageScale="1" pageWidth="827" pageHeight="1169" math="0" shadow="0">
      <root>
        <mxCell id="0" />
        <mxCell id="1" parent="0" />
        <mxCell id="nfXD6M4uELxz8Kt9sbh2-6" value="" style="edgeStyle=orthogonalEdgeStyle;rounded=0;orthogonalLoop=1;jettySize=auto;html=1;" parent="1" source="nfXD6M4uELxz8Kt9sbh2-2" target="nfXD6M4uELxz8Kt9sbh2-5" edge="1">
          <mxGeometry relative="1" as="geometry" />
        </mxCell>
        <mxCell id="nfXD6M4uELxz8Kt9sbh2-2" value="contact us &lt;br&gt;lead flow" style="ellipse;whiteSpace=wrap;html=1;" parent="1" vertex="1">
          <mxGeometry x="340" y="80" width="120" height="80" as="geometry" />
        </mxCell>
        <mxCell id="nfXD6M4uELxz8Kt9sbh2-8" value="" style="edgeStyle=orthogonalEdgeStyle;rounded=0;orthogonalLoop=1;jettySize=auto;html=1;exitX=0;exitY=0.5;exitDx=0;exitDy=0;" parent="1" source="nfXD6M4uELxz8Kt9sbh2-5" target="nfXD6M4uELxz8Kt9sbh2-7" edge="1">
          <mxGeometry relative="1" as="geometry">
            <mxPoint x="201" y="300" as="sourcePoint" />
          </mxGeometry>
        </mxCell>
        <mxCell id="nfXD6M4uELxz8Kt9sbh2-10" value="" style="edgeStyle=orthogonalEdgeStyle;rounded=0;orthogonalLoop=1;jettySize=auto;html=1;" parent="1" source="nfXD6M4uELxz8Kt9sbh2-5" target="nfXD6M4uELxz8Kt9sbh2-9" edge="1">
          <mxGeometry relative="1" as="geometry" />
        </mxCell>
        <mxCell id="nfXD6M4uELxz8Kt9sbh2-5" value="select merchant type" style="rhombus;whiteSpace=wrap;html=1;" parent="1" vertex="1">
          <mxGeometry x="345" y="230" width="110" height="120" as="geometry" />
        </mxCell>
        <mxCell id="nfXD6M4uELxz8Kt9sbh2-20" value="" style="edgeStyle=orthogonalEdgeStyle;rounded=0;orthogonalLoop=1;jettySize=auto;html=1;" parent="1" source="nfXD6M4uELxz8Kt9sbh2-7" target="nfXD6M4uELxz8Kt9sbh2-19" edge="1">
          <mxGeometry relative="1" as="geometry" />
        </mxCell>
        <mxCell id="nfXD6M4uELxz8Kt9sbh2-7" value="New Merchant&amp;nbsp;" style="whiteSpace=wrap;html=1;" parent="1" vertex="1">
          <mxGeometry x="6" y="260" width="120" height="60" as="geometry" />
        </mxCell>
        <mxCell id="NshhgBDtYLM9EDTRPuQp-56" value="" style="edgeStyle=orthogonalEdgeStyle;rounded=0;orthogonalLoop=1;jettySize=auto;html=1;" edge="1" parent="1" source="nfXD6M4uELxz8Kt9sbh2-9" target="NshhgBDtYLM9EDTRPuQp-40">
          <mxGeometry relative="1" as="geometry" />
        </mxCell>
        <mxCell id="nfXD6M4uELxz8Kt9sbh2-9" value="Existing Merchant" style="whiteSpace=wrap;html=1;" parent="1" vertex="1">
          <mxGeometry x="936" y="260" width="120" height="60" as="geometry" />
        </mxCell>
        <mxCell id="nfXD6M4uELxz8Kt9sbh2-25" value="" style="edgeStyle=orthogonalEdgeStyle;rounded=0;orthogonalLoop=1;jettySize=auto;html=1;" parent="1" source="nfXD6M4uELxz8Kt9sbh2-19" target="nfXD6M4uELxz8Kt9sbh2-24" edge="1">
          <mxGeometry relative="1" as="geometry" />
        </mxCell>
        <mxCell id="nfXD6M4uELxz8Kt9sbh2-34" value="" style="edgeStyle=orthogonalEdgeStyle;rounded=0;orthogonalLoop=1;jettySize=auto;html=1;" parent="1" source="nfXD6M4uELxz8Kt9sbh2-19" target="nfXD6M4uELxz8Kt9sbh2-33" edge="1">
          <mxGeometry relative="1" as="geometry" />
        </mxCell>
        <mxCell id="nfXD6M4uELxz8Kt9sbh2-19" value="lead scenario" style="rhombus;whiteSpace=wrap;html=1;" parent="1" vertex="1">
          <mxGeometry x="16" y="400" width="100" height="80" as="geometry" />
        </mxCell>
        <mxCell id="nfXD6M4uELxz8Kt9sbh2-23" value="single product select" style="text;html=1;align=center;verticalAlign=middle;resizable=0;points=[];autosize=1;" parent="1" vertex="1">
          <mxGeometry x="-104" y="400" width="120" height="20" as="geometry" />
        </mxCell>
        <mxCell id="nfXD6M4uELxz8Kt9sbh2-27" value="" style="edgeStyle=orthogonalEdgeStyle;rounded=0;orthogonalLoop=1;jettySize=auto;html=1;" parent="1" source="nfXD6M4uELxz8Kt9sbh2-24" target="nfXD6M4uELxz8Kt9sbh2-26" edge="1">
          <mxGeometry relative="1" as="geometry" />
        </mxCell>
        <mxCell id="nfXD6M4uELxz8Kt9sbh2-24" value="if lead type is &lt;br&gt;equal to given below &lt;br&gt;any of them" style="rhombus;whiteSpace=wrap;html=1;" parent="1" vertex="1">
          <mxGeometry x="-244" y="377.5" width="145" height="125" as="geometry" />
        </mxCell>
        <mxCell id="nfXD6M4uELxz8Kt9sbh2-26" value="1. Pos Machine&lt;br&gt;2. Corporate Gifting&lt;br&gt;3. Payment Gateway" style="whiteSpace=wrap;html=1;" parent="1" vertex="1">
          <mxGeometry x="-231.5" y="775" width="120" height="60" as="geometry" />
        </mxCell>
        <mxCell id="nfXD6M4uELxz8Kt9sbh2-32" value="&lt;h1&gt;&lt;span style=&quot;font-size: 12px ; font-weight: 400 ; text-align: center&quot;&gt;Mail goes to separately according to the select product type&lt;/span&gt;&lt;br&gt;&lt;/h1&gt;" style="text;html=1;strokeColor=none;fillColor=none;spacing=5;spacingTop=-20;whiteSpace=wrap;overflow=hidden;rounded=0;" parent="1" vertex="1">
          <mxGeometry x="-370" y="560" width="190" height="67.5" as="geometry" />
        </mxCell>
        <mxCell id="nfXD6M4uELxz8Kt9sbh2-37" value="" style="edgeStyle=orthogonalEdgeStyle;rounded=0;orthogonalLoop=1;jettySize=auto;html=1;" parent="1" source="nfXD6M4uELxz8Kt9sbh2-33" target="nfXD6M4uELxz8Kt9sbh2-36" edge="1">
          <mxGeometry relative="1" as="geometry" />
        </mxCell>
        <mxCell id="nfXD6M4uELxz8Kt9sbh2-39" value="" style="edgeStyle=orthogonalEdgeStyle;rounded=0;orthogonalLoop=1;jettySize=auto;html=1;entryX=0;entryY=0.5;entryDx=0;entryDy=0;" parent="1" source="nfXD6M4uELxz8Kt9sbh2-33" target="nfXD6M4uELxz8Kt9sbh2-44" edge="1">
          <mxGeometry relative="1" as="geometry">
            <mxPoint x="206" y="615" as="targetPoint" />
          </mxGeometry>
        </mxCell>
        <mxCell id="nfXD6M4uELxz8Kt9sbh2-33" value="then default&lt;br&gt;product is PoS&amp;nbsp;&lt;br&gt;Machine" style="rhombus;whiteSpace=wrap;html=1;" parent="1" vertex="1">
          <mxGeometry x="6" y="560" width="120" height="110" as="geometry" />
        </mxCell>
        <mxCell id="nfXD6M4uELxz8Kt9sbh2-35" value="multiproduct select" style="text;html=1;align=center;verticalAlign=middle;resizable=0;points=[];autosize=1;" parent="1" vertex="1">
          <mxGeometry x="66" y="502.5" width="120" height="20" as="geometry" />
        </mxCell>
        <mxCell id="nfXD6M4uELxz8Kt9sbh2-36" value="Mail goes to pos Machine." style="whiteSpace=wrap;html=1;" parent="1" vertex="1">
          <mxGeometry x="6" y="775" width="120" height="60" as="geometry" />
        </mxCell>
        <mxCell id="nfXD6M4uELxz8Kt9sbh2-43" value="" style="edgeStyle=orthogonalEdgeStyle;rounded=0;orthogonalLoop=1;jettySize=auto;html=1;" parent="1" target="nfXD6M4uELxz8Kt9sbh2-42" edge="1">
          <mxGeometry relative="1" as="geometry">
            <mxPoint x="266" y="645" as="sourcePoint" />
          </mxGeometry>
        </mxCell>
        <mxCell id="nfXD6M4uELxz8Kt9sbh2-42" value="By default mail send to PoS machine as well as corporate or payment gateway" style="whiteSpace=wrap;html=1;" parent="1" vertex="1">
          <mxGeometry x="206" y="775" width="120" height="60" as="geometry" />
        </mxCell>
        <mxCell id="nfXD6M4uELxz8Kt9sbh2-44" value="&lt;span&gt;if user select &lt;br&gt;corporate gifting &lt;br&gt;or payment&lt;br&gt;&amp;nbsp;gateway&lt;/span&gt;" style="rhombus;whiteSpace=wrap;html=1;" parent="1" vertex="1">
          <mxGeometry x="201" y="557.5" width="130" height="115" as="geometry" />
        </mxCell>
        <mxCell id="nfXD6M4uELxz8Kt9sbh2-45" value="mail send" style="text;html=1;align=center;verticalAlign=middle;resizable=0;points=[];autosize=1;" parent="1" vertex="1">
          <mxGeometry x="76" y="700" width="70" height="20" as="geometry" />
        </mxCell>
        <mxCell id="nfXD6M4uELxz8Kt9sbh2-46" value="mail send" style="text;html=1;align=center;verticalAlign=middle;resizable=0;points=[];autosize=1;" parent="1" vertex="1">
          <mxGeometry x="270" y="710" width="70" height="20" as="geometry" />
        </mxCell>
        <mxCell id="NshhgBDtYLM9EDTRPuQp-38" value="" style="edgeStyle=orthogonalEdgeStyle;rounded=0;orthogonalLoop=1;jettySize=auto;html=1;" edge="1" parent="1" source="NshhgBDtYLM9EDTRPuQp-40">
          <mxGeometry relative="1" as="geometry">
            <mxPoint x="831" y="472.5" as="targetPoint" />
          </mxGeometry>
        </mxCell>
        <mxCell id="NshhgBDtYLM9EDTRPuQp-39" value="" style="edgeStyle=orthogonalEdgeStyle;rounded=0;orthogonalLoop=1;jettySize=auto;html=1;" edge="1" parent="1" source="NshhgBDtYLM9EDTRPuQp-40" target="NshhgBDtYLM9EDTRPuQp-48">
          <mxGeometry relative="1" as="geometry" />
        </mxCell>
        <mxCell id="NshhgBDtYLM9EDTRPuQp-40" value="lead scenario" style="rhombus;whiteSpace=wrap;html=1;direction=south;" vertex="1" parent="1">
          <mxGeometry x="956" y="422.5" width="80" height="100" as="geometry" />
        </mxCell>
        <mxCell id="NshhgBDtYLM9EDTRPuQp-41" value="single product selected" style="text;html=1;align=center;verticalAlign=middle;resizable=0;points=[];autosize=1;" vertex="1" parent="1">
          <mxGeometry x="826" y="440" width="140" height="20" as="geometry" />
        </mxCell>
        <mxCell id="NshhgBDtYLM9EDTRPuQp-44" value="&lt;h1&gt;&lt;span style=&quot;font-size: 12px ; font-weight: 400 ; line-height: 90%&quot;&gt;Mail goes to separately according to the selected product type&lt;/span&gt;&lt;/h1&gt;" style="whiteSpace=wrap;html=1;align=left;" vertex="1" parent="1">
          <mxGeometry x="680" y="427.5" width="150" height="90" as="geometry" />
        </mxCell>
        <mxCell id="NshhgBDtYLM9EDTRPuQp-46" value="" style="edgeStyle=orthogonalEdgeStyle;rounded=0;orthogonalLoop=1;jettySize=auto;html=1;" edge="1" parent="1" source="NshhgBDtYLM9EDTRPuQp-48" target="NshhgBDtYLM9EDTRPuQp-50">
          <mxGeometry relative="1" as="geometry" />
        </mxCell>
        <mxCell id="NshhgBDtYLM9EDTRPuQp-47" value="" style="edgeStyle=orthogonalEdgeStyle;rounded=0;orthogonalLoop=1;jettySize=auto;html=1;entryX=0;entryY=0.5;entryDx=0;entryDy=0;" edge="1" parent="1" source="NshhgBDtYLM9EDTRPuQp-48" target="NshhgBDtYLM9EDTRPuQp-53">
          <mxGeometry relative="1" as="geometry">
            <mxPoint x="1136" y="647.5" as="targetPoint" />
          </mxGeometry>
        </mxCell>
        <mxCell id="NshhgBDtYLM9EDTRPuQp-48" value="then default&lt;br&gt;product is PoS&amp;nbsp;&lt;br&gt;Machine" style="rhombus;whiteSpace=wrap;html=1;" vertex="1" parent="1">
          <mxGeometry x="936" y="592.5" width="120" height="110" as="geometry" />
        </mxCell>
        <mxCell id="NshhgBDtYLM9EDTRPuQp-49" value="multiproduct select" style="text;html=1;align=center;verticalAlign=middle;resizable=0;points=[];autosize=1;" vertex="1" parent="1">
          <mxGeometry x="996" y="535" width="120" height="20" as="geometry" />
        </mxCell>
        <mxCell id="NshhgBDtYLM9EDTRPuQp-50" value="Mail goes to pos Machine." style="whiteSpace=wrap;html=1;" vertex="1" parent="1">
          <mxGeometry x="936" y="807.5" width="120" height="60" as="geometry" />
        </mxCell>
        <mxCell id="NshhgBDtYLM9EDTRPuQp-51" value="" style="edgeStyle=orthogonalEdgeStyle;rounded=0;orthogonalLoop=1;jettySize=auto;html=1;" edge="1" parent="1" target="NshhgBDtYLM9EDTRPuQp-52">
          <mxGeometry relative="1" as="geometry">
            <mxPoint x="1196" y="677.5" as="sourcePoint" />
          </mxGeometry>
        </mxCell>
        <mxCell id="NshhgBDtYLM9EDTRPuQp-52" value="By default mail send to PoS machine as well as corporate or payment gateway" style="whiteSpace=wrap;html=1;" vertex="1" parent="1">
          <mxGeometry x="1136" y="807.5" width="120" height="60" as="geometry" />
        </mxCell>
        <mxCell id="NshhgBDtYLM9EDTRPuQp-53" value="&lt;span&gt;if user select &lt;br&gt;corporate gifting &lt;br&gt;or payment&lt;br&gt;&amp;nbsp;gateway&lt;/span&gt;" style="rhombus;whiteSpace=wrap;html=1;" vertex="1" parent="1">
          <mxGeometry x="1131" y="590" width="130" height="115" as="geometry" />
        </mxCell>
        <mxCell id="NshhgBDtYLM9EDTRPuQp-54" value="mail send" style="text;html=1;align=center;verticalAlign=middle;resizable=0;points=[];autosize=1;" vertex="1" parent="1">
          <mxGeometry x="1006" y="732.5" width="70" height="20" as="geometry" />
        </mxCell>
        <mxCell id="NshhgBDtYLM9EDTRPuQp-55" value="mail send" style="text;html=1;align=center;verticalAlign=middle;resizable=0;points=[];autosize=1;" vertex="1" parent="1">
          <mxGeometry x="1200" y="742.5" width="70" height="20" as="geometry" />
        </mxCell>
      </root>
    </mxGraphModel>
  </diagram>
</mxfile>
